<svg height="512pt" viewBox="-24 0 512 512.001" width="512pt" xmlns="http://www.w3.org/2000/svg"><path d="m124.167969 179.152344c-.054688-.28125-.085938-.570313-.085938-.871094l.042969-14.359375c.007812.003906.011719.003906.019531.003906-7.722656-.460937-14.953125-2.730469-21.28125-6.386719-2.355469.84375-3.90625 3.179688-3.90625 6.527344v16.378906c0 5.5 4.160157 8.28125 9.242188 6.179688l16.015625-6.621094c.054687-.023437.117187-.042968.171875-.066406-.09375-.253906-.167969-.511719-.21875-.785156zm0 0" fill="#00cca5"/><path d="m164.050781 157.539062c-6.375 3.683594-13.664062 5.960938-21.449219 6.398438v14.34375c0 .558594-.109374 1.082031-.277343 1.582031.121093.046875.253906.089844.371093.140625l16.015626 6.621094c5.085937 2.101562 9.242187-.679688 9.242187-6.179688v-16.378906c0-3.347656-1.546875-5.679687-3.902344-6.527344zm0 0" fill="#00cca5"/><path d="m139.835938 164.019531h-12.757813c-.992187 0-1.976563-.039062-2.953125-.097656l-.042969 14.359375c0 2.75 2.25 5 5 5h8.519531c2.75 0 5-2.25 5-5v-14.347656c-.914062.054687-1.835937.085937-2.765624.085937zm0 0" fill="#159e97"/><path d="m65.867188 168.121094h-9.652344c-7.300782 0-13.214844 5.917968-13.214844 13.214844v157.496093h22.867188zm0 0" fill="#c7c8ca"/><path d="m121.261719 362.210938v2.011718c.890625-.574218 1.707031-1.25 2.4375-2.011718zm0 0" fill="#c7c8ca"/><path d="m72.476562 344.96875h-6.609374v-6.136719h-22.867188v14.269531c0 7.296876 5.914062 13.210938 13.214844 13.210938h16.261718zm0 0" fill="#ffe2b8"/><path d="m121.261719 362.210938v2.011718c.890625-.574218 1.707031-1.25 2.4375-2.011718zm0 0" fill="#ffe2b8"/><path d="m72.476562 344.96875v140.222656h36.585938c6.738281 0 12.199219 5.460938 12.199219 12.195313v-135.175781h24.390625v135.175781c0-6.734375 5.460937-12.195313 12.195312-12.195313h8.171875c.449219-8.003906 1.164063-15.882812 2.148438-23.597656 4.273437-33.523438 13.46875-64.070312 26.269531-89.570312v-27.054688zm0 0" fill="#c7c8ca"/><path d="m72.476562 344.96875h20.0625v140.222656h-20.0625zm0 0" fill="#a7a9ac"/><path d="m184.605469 244.488281c-1.371094 0-2.6875-.550781-3.652344-1.527343-.960937-.976563-1.492187-2.300782-1.46875-3.667969.054687-3.214844.160156-6.414063.3125-9.601563l-29.910156 50.195313h-32.863281l-34.492188-57.882813c-.726562-1.222656-.3125-2.796875.925781-3.5l14.015625-7.957031c1.234375-.703125 1.207032-1.800781-.0625-2.441406l-10.789062-5.433594c-1.269532-.640625-1.953125-2.269531-1.515625-3.625l9.953125-30.925781h-29.191406v176.847656h135.175781v-100.480469zm0 0" fill="#c7c8ca"/><path d="m82.535156 222.003906c-.730468-1.222656-.316406-2.796875.925782-3.5l3.039062-1.726562v-14.183594c-1.1875-.683594-1.816406-2.238281-1.394531-3.546875l1.394531-4.332031v-26.59375h-20.632812v176.847656h20.632812v-116.308594zm0 0" fill="#a7a9ac"/><path d="m157.847656 485.191406c-6.734375 0-12.195312 5.460938-12.195312 12.195313v7.113281h19.816406c0-6.511719.191406-12.949219.550781-19.308594zm0 0" fill="#6d6e71"/><path d="m121.261719 504.5v-7.113281c0-6.734375-5.460938-12.195313-12.199219-12.195313h-41.667969c-6.738281 0-12.199219 5.460938-12.199219 12.195313v7.113281zm0 0" fill="#6d6e71"/><path d="m87.699219 485.191406h-20.304688c-6.738281 0-12.199219 5.460938-12.199219 12.195313v7.113281h20.304688v-7.113281c0-6.738281 5.460938-12.195313 12.199219-12.195313zm0 0" fill="#383838"/><path d="m108.199219 186.625c-5.082031 2.101562-9.242188-.679688-9.242188-6.179688v-16.378906c0-3.351562 1.550781-5.683594 3.90625-6.527344h.007813c-.566406-.324218-1.125-.65625-1.675782-1.007812-1.367187.09375-2.773437 1.152344-3.191406 2.445312l-12.898437 40.070313c-.433594 1.355469.246093 2.984375 1.519531 3.625l10.785156 5.433594c1.273438.640625 1.300782 1.738281.0625 2.441406l-14.011718 7.957031c-1.238282.703125-1.65625 2.277344-.925782 3.5l34.488282 57.878906h16.433593l-20.972656-95.03125zm0 0" fill="#8a8c8e"/><path d="m180.675781 216.929688-11.234375-6.382813c-1.238281-.703125-1.210937-1.800781.058594-2.441406l10.789062-5.433594c1.269532-.640625 1.957032-2.273437 1.53125-3.628906l-12.65625-40.0625c-.429687-1.355469-1.941406-2.464844-3.367187-2.464844h-.050781c-.558594.355469-1.128906.691406-1.703125 1.023437h.007812c2.355469.84375 3.902344 3.175782 3.902344 6.527344v16.378906c0 5.5-4.15625 8.28125-9.238281 6.179688l-4.285156-1.773438-20.972657 95.03125h16.433594l29.910156-50.195312c.203125-4.28125.492188-8.539062.875-12.757812zm0 0" fill="#8a8c8e"/><path d="m142.695312 180.003906c-.117187-.050781-.25-.09375-.371093-.140625v-.003906c-.667969 1.980469-2.523438 3.421875-4.722657 3.421875h-8.519531c-2.167969 0-4.007812-1.402344-4.695312-3.34375-.054688.023438-.117188.042969-.171875.0625l-11.730469 4.851562 20.972656 95.03125 20.972657-95.03125zm0 0" fill="#fff"/><path d="m70.421875 90.539062h8.277344v-6.6875c0-30.015624 24.515625-41.210937 54.757812-41.210937 30.242188 0 54.757813 11.195313 54.757813 41.210937v6.6875h8.277344c.4375 0 .871093.035157 1.296874.089844v-45.769531c0-12.523437-10.199218-22.671875-22.78125-22.671875h-2.921874c-3.941407 0-7.648438.996094-10.878907 2.746094-4.824219-10.292969-15.3125-17.433594-27.480469-17.433594h-34.292968c-16.742188 0-30.308594 13.503906-30.308594 30.164062v52.964844c.425781-.054687.855469-.089844 1.296875-.089844zm0 0" fill="#f39600"/><path d="m70.421875 90.539062h8.277344v-6.6875c0-12.203124 4.050781-21.292968 10.890625-27.785156v-18.402344c0-16.660156 13.566406-30.164062 30.308594-30.164062h-20.464844c-16.742188 0-30.308594 13.503906-30.308594 30.164062v52.964844c.425781-.054687.855469-.089844 1.296875-.089844zm0 0" fill="#ce7a00"/><g fill="#ffe2b8"><path d="m78.699219 115.816406v-25.277344h-8.277344c-5.632813 0-10.195313 4.550782-10.195313 10.15625v12.292969c0 5.609375 4.5625 10.15625 10.195313 10.15625h8.832031c-.367187-2.386719-.554687-4.835937-.554687-7.328125zm0 0"/><path d="m196.492188 90.539062h-8.277344v25.277344c0 2.492188-.191406 4.941406-.558594 7.328125h8.835938c5.628906 0 10.191406-4.546875 10.191406-10.15625v-12.292969c.003906-5.605468-4.5625-10.15625-10.191406-10.15625zm0 0"/><path d="m133.457031 42.640625c-30.242187 0-54.757812 11.195313-54.757812 41.210937v31.96875c0 26.617188 21.660156 48.199219 48.378906 48.199219h12.757813c26.71875 0 48.378906-21.582031 48.378906-48.199219v-31.96875c0-30.015624-24.515625-41.210937-54.757813-41.210937zm0 0"/></g><path d="m96.5 115.816406v-31.964844c0-27.003906 19.851562-38.773437 45.855469-40.859374-2.898438-.234376-5.867188-.351563-8.898438-.351563-30.242187 0-54.757812 11.195313-54.757812 41.210937v31.96875c0 26.617188 21.660156 48.199219 48.378906 48.199219h12.757813c.847656 0 1.6875-.019531 2.523437-.0625-25.550781-1.308593-45.859375-22.359375-45.859375-48.140625zm0 0" fill="#ffc987"/><path d="m241.292969 156.449219h-8.085938c-5.316406 0-9.625-4.257813-9.625-9.507813v-11.507812c0-4.386719 3.007813-8.066406 7.09375-9.164063v-20.863281c0-7.601562 1.414063-14.480469 3.976563-20.589844-7.8125 7.652344-15.109375 16.90625-21.722656 27.667969-20.765626 33.777344-32.644532 78.8125-33.445313 126.808594-.023437 1.367187.507813 2.691406 1.46875 3.667969.964844.976562 2.28125 1.527343 3.652344 1.527343h33.734375v-37.828125c0-7.515625 6.105468-13.605468 13.632812-13.605468.101563 0 .195313.015624.292969.015624h39.792969c-16.113282-5.40625-28.25-19.476562-30.765625-36.621093zm0 0" fill="#abebff"/><path d="m372.539062 112.484375c-6.613281-10.761719-13.910156-20.019531-21.730468-27.671875 2.566406 6.109375 3.980468 12.988281 3.980468 20.59375v20.863281c4.089844 1.097657 7.09375 4.777344 7.09375 9.164063v11.507812c0 5.25-4.304687 9.507813-9.625 9.507813h-8.085937c0-.011719 0-.023438.003906-.039063-2.507812 17.164063-14.65625 31.253906-30.789062 36.660156h39.8125c.097656-.003906.195312-.015624.292969-.015624 7.53125 0 13.636718 6.089843 13.636718 13.605468v21.339844h17.160156c4.097657 0 7.4375 3.328125 7.4375 7.421875v9.066406h9.136719c1.375 0 2.6875-.550781 3.648438-1.527343.964843-.976563 1.496093-2.300782 1.472656-3.667969-.804687-47.992188-12.679687-93.03125-33.445313-126.808594zm0 0" fill="#abebff"/><path d="m187.035156 236.988281h13.019532c.765624-31.628906 6.34375-61.898437 16.109374-88.441406-.050781-.527344-.082031-1.0625-.082031-1.605469v-11.507812c0-5.65625 2.804688-10.660156 7.09375-13.753906v-11.210938c-1.308593 1.929688-2.597656 3.894531-3.855469 5.941406-19.722656 32.085938-31.15625 74.824219-32.285156 120.578125zm0 0" fill="#76d8ff"/><path d="m255.71875 248.113281c-4.710938-1.65625-8.441406-5.375-10.105469-10.070312v20.320312l7.019531 12.128907h14.835938zm0 0" fill="#fff"/><path d="m329.722656 238.113281c-.253906 3.703125-1.753906 6.867188-3.976562 8.859375-.03125.066406-.046875.125-.082032.191406l-12.113281 23.070313c.113281.085937.226563.167969.332031.257813h18.953126l7.019531-12.132813v-26.039063c-1.691407 3.203126-5.492188 5.476563-10.132813 5.792969zm0 0" fill="#fff"/><path d="m352.757812 193.054688h-39.328124c-2.035157.6875-4.132813 1.238281-6.285157 1.632812 3.40625 3.027344 5.566407 7.421875 5.566407 12.335938 0 .558593-.027344 1.113281-.082032 1.65625 0 .003906 0 .003906-.003906.003906 1.660156-1.597656 3.695312-2.46875 5.886719-2.460938 2.226562.007813 4.3125.921875 6.027343 2.636719 2.300782 2.296875 3.679688 5.925781 3.691407 9.703125v.238281c.078125-.003906.15625-.003906.238281 0 3.773438.011719 7.402344 1.390625 9.699219 3.6875.703125.699219 1.261719 1.464844 1.6875 2.273438v-18.101563c0-7.417968 5.949219-13.433594 13.347656-13.589844-.148437-.003906-.296875-.015624-.445313-.015624zm0 0" fill="#fff"/><path d="m417.300781 461.59375c-2.019531.597656-4.085937.90625-6.1875.90625-11.671875 0-22.1875-9.554688-29.597656-24.832031-7.40625 15.277343-17.921875 24.832031-29.59375 24.832031s-22.183594-9.554688-29.59375-24.832031c-7.410156 15.277343-17.921875 24.832031-29.59375 24.832031-11.675781 0-22.1875-9.554688-29.597656-24.832031-7.410157 15.277343-17.921875 24.832031-29.59375 24.832031s-22.183594-9.554688-29.59375-24.832031c-7.410157 15.277343-17.925781 24.832031-29.597657 24.832031-2.101562 0-4.167968-.308594-6.1875-.90625-1.765624 13.847656-2.699218 28.195312-2.699218 42.90625h254.535156c0-14.710938-.933594-29.058594-2.699219-42.90625zm0 0" fill="#abebff"/><path d="m174.355469 462.5c-2.105469 0-4.171875-.308594-6.1875-.90625-1.765625 13.847656-2.703125 28.195312-2.703125 42.90625h20.5c0-16.351562 1.15625-32.257812 3.328125-47.523438-4.625 3.554688-9.660157 5.523438-14.9375 5.523438zm0 0" fill="#76d8ff"/><path d="m329.941406 304.929688h-74.414062c-43.976563 22.007812-77.839844 82-87.359375 156.664062 2.015625.597656 4.082031.90625 6.1875.90625 11.671875 0 22.183593-9.554688 29.59375-24.832031 7.410156 15.277343 17.921875 24.832031 29.59375 24.832031s22.1875-9.554688 29.597656-24.832031c7.40625 15.277343 17.921875 24.832031 29.59375 24.832031s22.1875-9.554688 29.59375-24.832031c7.410156 15.277343 17.925781 24.832031 29.597656 24.832031 11.667969 0 22.183594-9.554688 29.59375-24.832031 7.410157 15.277343 17.921875 24.832031 29.59375 24.832031 2.105469 0 4.171875-.308594 6.1875-.90625-9.519531-74.664062-43.386719-134.65625-87.359375-156.664062zm0 0" fill="#def9ff"/><path d="m255.527344 304.929688c-43.976563 22.007812-77.839844 82-87.359375 156.664062 2.015625.597656 4.082031.90625 6.1875.90625 5.203125 0 10.175781-1.910156 14.746093-5.371094 10.28125-72.59375 43.675782-130.644531 86.78125-152.199218zm0 0" fill="#abebff"/><path d="m292.734375 51.964844c9.351563 0 18.210937 1.46875 26.164063 4.277344 2.402343-3.300782 3.835937-7.347657 3.835937-11.742188 0-11.046875-8.953125-20-20-20h-20c-11.046875 0-20 8.953125-20 20 0 4.394531 1.433594 8.441406 3.835937 11.742188 7.953126-2.808594 16.8125-4.277344 26.164063-4.277344zm0 0" fill="#f39600"/><path d="m285.089844 52.3125c-1.019532-2.402344-1.589844-5.039062-1.589844-7.8125 0-10.914062 8.75-19.773438 19.617188-19.980469-.128907-.003906-.253907-.019531-.382813-.019531h-20c-11.046875 0-20 8.953125-20 20 0 4.394531 1.433594 8.441406 3.835937 11.742188 5.75-2.03125 11.976563-3.351563 18.519532-3.929688zm0 0" fill="#ce7a00"/><path d="m233.207031 125.925781h7.601563v-10.570312c0-1.589844 1.289062-2.878907 2.882812-2.878907h40.972656c7.480469 0 14.605469-3.960937 18.597657-10.335937.527343-.835937 1.449219-1.351563 2.445312-1.351563.992188 0 1.914063.515626 2.441407 1.351563 3.992187 6.375 11.121093 10.335937 18.597656 10.335937h15.03125c1.59375 0 2.882812 1.289063 2.882812 2.878907v10.570312h7.601563c.875 0 1.722656.125 2.53125.34375v-20.859375c0-33.839844-27.785157-53.445312-62.058594-53.445312s-62.058594 19.605468-62.058594 53.445312v20.859375c.808594-.21875 1.65625-.34375 2.53125-.34375zm0 0" fill="#f39600"/><path d="m233.207031 125.925781h7.601563v-10.570312c0-1.589844 1.289062-2.878907 2.882812-2.878907h7.808594v-7.066406c0-30.335937 22.332031-49.21875 51.648438-52.808594-3.390626-.414062-6.863282-.636718-10.414063-.636718-34.273437 0-62.058594 19.605468-62.058594 53.441406v20.863281c.808594-.21875 1.65625-.34375 2.53125-.34375zm0 0" fill="#ce7a00"/><path d="m240.808594 149.828125v-23.902344h-7.601563c-5.316406 0-9.625 4.257813-9.625 9.507813v11.507812c0 5.25 4.308594 9.507813 9.625 9.507813h8.089844c-.320313-2.164063-.488281-4.375-.488281-6.621094zm0 0" fill="#ffe2b8"/><path d="m352.257812 125.925781h-7.597656v23.902344c0 2.246094-.171875 4.457031-.488281 6.621094h8.085937c5.320313 0 9.628907-4.257813 9.628907-9.507813v-11.507812c0-5.25-4.308594-9.507813-9.628907-9.507813zm0 0" fill="#ffe2b8"/><path d="m341.777344 112.476562h-15.03125c-7.476563 0-14.605469-3.960937-18.597656-10.335937-.527344-.835937-1.449219-1.351563-2.441407-1.351563-.996093 0-1.917969.515626-2.449219 1.351563-3.988281 6.375-11.117187 10.335937-18.59375 10.335937h-40.972656c-1.59375 0-2.886718 1.289063-2.886718 2.878907v34.472656c0 24.398437 19.355468 44.386719 43.59375 45.578125 3-3.027344 7.152343-4.90625 11.753906-4.90625 4.226562 0 8.066406 1.59375 10.992187 4.191406 21.3125-3.925781 37.515625-22.542968 37.515625-44.863281v-34.472656c0-1.589844-1.289062-2.878907-2.882812-2.878907zm0 0" fill="#ffe2b8"/><path d="m264.671875 291.96875v-14.9375c0-2.625 1.191406-4.972656 3.058594-6.539062h-22.117188v-32.449219c-.609375-1.722657-.953125-3.566407-.953125-5.496094 0-1.925781.347656-3.765625.953125-5.480469v-20.40625c0-7.515625-6.105469-13.601562-13.636719-13.601562s-13.636718 6.089844-13.636718 13.601562v77.441406c0 7.515626 6.105468 13.601563 13.632812 13.601563h34.929688c-1.378906-1.515625-2.230469-3.523437-2.230469-5.734375zm0 0" fill="#def9ff"/><path d="m230.5 284.097656v-77.4375c0-5.332031 3.082031-9.933594 7.554688-12.164062-1.832032-.914063-3.890626-1.441406-6.078126-1.441406-7.53125 0-13.636718 6.089843-13.636718 13.605468v77.4375c0 7.515625 6.105468 13.605469 13.632812 13.605469h12.164063c-7.53125 0-13.636719-6.089844-13.636719-13.605469zm0 0" fill="#abebff"/><path d="m365.4375 274.855469c-4.101562 0-7.4375-3.332031-7.4375-7.425781v-3.054688c0-2.292969 1.046875-4.347656 2.691406-5.710938-1.644531-1.363281-2.691406-3.417968-2.691406-5.710937v-3.054687c0-2.292969 1.046875-4.347657 2.691406-5.710938-1.644531-1.363281-2.691406-3.417969-2.691406-5.710938v-3.054687c0-4.09375 3.335938-7.425781 7.4375-7.425781h1.691406v-21.335938c0-7.515625-6.109375-13.605468-13.636718-13.605468-7.53125 0-13.636719 6.089843-13.636719 13.605468v63.832032h-25.972657c1.867188 1.5625 3.058594 3.910156 3.058594 6.539062v14.933594c0 2.214844-.851562 4.222656-2.230468 5.738281h38.78125c7.53125 0 13.636718-6.089844 13.636718-13.605469v-9.246094h-1.691406zm0 0" fill="#def9ff"/><path d="m286.890625 210.894531c0 2.378907-.515625 4.636719-1.425781 6.683594.941406-.363281 1.9375-.550781 2.960937-.546875 2.230469.007812 4.316407.917969 6.03125 2.636719 1.039063 1.039062 1.878907 2.359375 2.5 3.835937.578125-.027344 1.140625-.082031 1.699219-.167968.640625-1.316407 1.632812-2.511719 2.960938-3.492188 1.980468-1.464844 4.535156-2.347656 7.296874-2.535156.191407-2.765625 1.074219-5.320313 2.535157-7.300782.367187-.492187.765625-.925781 1.179687-1.324218.054688-.546875.085938-1.101563.085938-1.660156 0-9.125-7.414063-16.519532-16.558594-16.519532-6.195312 0-11.585938 3.398438-14.425781 8.425782 3.171875 3.007812 5.160156 7.25 5.160156 11.964843zm0 0" fill="#ff99a3"/><path d="m261.214844 216.023438c6.898437 0 12.804687 4.207031 15.296875 10.191406 1.042969-.417969 2.035156-.9375 2.957031-1.550782.4375-1.421874 1.070312-2.726562 1.898438-3.847656 1.132812-1.53125 2.539062-2.632812 4.097656-3.238281.910156-2.046875 1.425781-4.304687 1.425781-6.6875 0-9.121094-7.414063-16.519531-16.558594-16.519531-9.140625 0-16.554687 7.398437-16.554687 16.519531 0 2.246094.449218 4.382813 1.261718 6.332031 1.910157-.765625 3.992188-1.199218 6.175782-1.199218zm0 0" fill="#f66"/><path d="m255.21875 247.164062c-.765625-1.460937-.042969-2.652343 1.605469-2.652343h14.425781c-.304688-.246094-.597656-.5-.867188-.773438-1.714843-1.714843-2.628906-3.800781-2.636718-6.027343-.011719-2.738282 1.335937-5.246094 3.789062-7.0625 1.582032-1.171876 3.539063-1.960938 5.671875-2.332032-1.875-7.070312-8.3125-12.292968-15.992187-12.292968-9.140625 0-16.554688 7.398437-16.554688 16.523437 0 7.195313 4.621094 13.300781 11.058594 15.566406zm0 0" fill="#ff99a3"/><path d="m338.167969 222.488281c-2.296875-2.300781-5.925781-3.675781-9.699219-3.6875-.082031-.003906-.160156-.003906-.238281 0 0-.082031 0-.160156 0-.238281-.011719-3.777344-1.390625-7.40625-3.691407-9.703125-1.714843-1.714844-3.800781-2.628906-6.027343-2.636719-2.738281-.011718-5.25 1.335938-7.0625 3.785156-1.460938 1.980469-2.347657 4.535157-2.535157 7.300782-2.761718.1875-5.320312 1.070312-7.296874 2.535156-2.3125 1.710938-3.628907 4.042969-3.761719 6.601562.164062.839844.253906 1.707032.277343 2.582032.050782.195312.113282.386718.183594.578125h.070313c3.773437.015625 7.398437 1.390625 9.699219 3.691406 1.71875 1.71875 2.628906 3.804687 2.636718 6.03125.007813 1.921875-.667968 3.695313-1.84375 5.183594h15.179688c1.574218 0 2.289062 1.09375 1.683594 2.464843 2.222656-1.992187 3.726562-5.15625 3.980468-8.859374 6.320313-.433594 11.101563-4.484376 11.082032-9.597657-.007813-2.230469-.917969-4.3125-2.636719-6.03125zm0 0" fill="#f66"/><path d="m271.25 244.511719h37.628906c1.179688-1.488281 1.851563-3.261719 1.84375-5.1875-.007812-2.226563-.917968-4.3125-2.636718-6.027344-2.296876-2.300781-5.925782-3.679687-9.699219-3.691406-.082031 0-.160157 0-.238281 0 0-.078125 0-.160157 0-.238281-.015626-3.773438-1.394532-7.402344-3.691407-9.699219-1.714843-1.71875-3.800781-2.632813-6.027343-2.640625-2.738282-.007813-5.25 1.335937-7.0625 3.789062-1.460938 1.980469-2.34375 4.53125-2.535157 7.296875-2.761719.191407-5.320312 1.074219-7.296875 2.535157-2.453125 1.816406-3.796875 4.320312-3.785156 7.0625.003906 2.226562.917969 4.3125 2.636719 6.027343.269531.273438.558593.527344.863281.773438zm0 0" fill="#fcf3eb"/><path d="m267.46875 270.492188h.261719c1.480469-1.242188 3.390625-1.992188 5.476562-1.992188h35.199219c1.9375 0 3.714844.652344 5.144531 1.738281l12.113281-23.074219c.769532-1.460937.046876-2.652343-1.605468-2.652343h-67.230469c-1.652344 0-2.375 1.191406-1.605469 2.652343zm0 0" fill="#00cca5"/><path d="m271.25 244.511719h37.628906c1.179688-1.488281 1.851563-3.261719 1.84375-5.1875-.007812-2.226563-.917968-4.3125-2.636718-6.027344-2.296876-2.300781-5.925782-3.679687-9.699219-3.691406-.082031 0-.160157 0-.238281 0 0-.078125 0-.160157 0-.238281-.015626-3.773438-1.394532-7.402344-3.691407-9.699219-1.714843-1.71875-3.800781-2.632813-6.027343-2.640625-2.738282-.007813-5.25 1.335937-7.0625 3.789062-1.460938 1.980469-2.34375 4.53125-2.535157 7.296875-2.761719.191407-5.320312 1.074219-7.296875 2.535157-2.453125 1.816406-3.796875 4.320312-3.785156 7.0625.003906 2.226562.917969 4.3125 2.636719 6.027343.269531.273438.558593.527344.863281.773438zm0 0" fill="#fcf3eb"/><path d="m271.25 244.511719h37.628906c1.179688-1.488281 1.851563-3.261719 1.84375-5.1875-.007812-2.226563-.917968-4.3125-2.636718-6.027344-2.296876-2.300781-5.925782-3.679687-9.699219-3.691406-.082031 0-.160157 0-.238281 0 0-.078125 0-.160157 0-.238281-.015626-3.773438-1.394532-7.402344-3.691407-9.699219-1.714843-1.71875-3.800781-2.632813-6.027343-2.640625-2.738282-.007813-5.25 1.335937-7.0625 3.789062-1.460938 1.980469-2.34375 4.53125-2.535157 7.296875-2.761719.191407-5.320312 1.074219-7.296875 2.535157-2.453125 1.816406-3.796875 4.320312-3.785156 7.0625.003906 2.226562.917969 4.3125 2.636719 6.027343.269531.273438.558593.527344.863281.773438zm0 0" fill="#fcf3eb"/><path d="m267.46875 270.492188h.261719c1.480469-1.242188 3.390625-1.992188 5.476562-1.992188h35.199219c1.9375 0 3.714844.652344 5.144531 1.738281l12.113281-23.074219c.769532-1.460937.046876-2.652343-1.605468-2.652343h-67.230469c-1.652344 0-2.375 1.191406-1.605469 2.652343zm0 0" fill="#00cca5"/><path d="m267.46875 270.492188h.261719c1.480469-1.242188 3.390625-1.992188 5.476562-1.992188h13.800781l-11.199218-21.335938c-.769532-1.460937-.046875-2.652343 1.605468-2.652343h-20.585937c-1.652344 0-2.375 1.191406-1.605469 2.652343zm0 0" fill="#02af8e"/><path d="m290.273438 291.96875c0 4.710938-3.820313 8.53125-8.535157 8.53125h-8.53125c-4.714843 0-8.535156-3.820312-8.535156-8.53125v-14.9375c0-4.710938 3.820313-8.53125 8.535156-8.53125h8.53125c4.714844 0 8.535157 3.820312 8.535157 8.53125zm0 0" fill="#ffe2b8"/><path d="m274.902344 291.96875v-14.9375c0-4.425781 3.371094-8.0625 7.683594-8.488281-.277344-.027344-.558594-.042969-.847657-.042969h-8.53125c-4.714843 0-8.535156 3.820312-8.535156 8.53125v14.9375c0 4.710938 3.820313 8.53125 8.535156 8.53125h8.53125c.289063 0 .570313-.015625.847657-.042969-4.3125-.425781-7.683594-4.0625-7.683594-8.488281zm0 0" fill="#ffc987"/><path d="m316.941406 291.96875c0 4.710938-3.820312 8.53125-8.535156 8.53125h-8.53125c-4.714844 0-8.535156-3.820312-8.535156-8.53125v-14.9375c0-4.710938 3.820312-8.53125 8.535156-8.53125h8.53125c4.714844 0 8.535156 3.820312 8.535156 8.53125zm0 0" fill="#ffe2b8"/><path d="m301.566406 291.96875v-14.9375c0-4.425781 3.371094-8.0625 7.6875-8.488281-.28125-.027344-.5625-.042969-.847656-.042969h-8.535156c-4.710938 0-8.53125 3.820312-8.53125 8.53125v14.9375c0 4.710938 3.820312 8.53125 8.53125 8.53125h8.535156c.285156 0 .566406-.015625.847656-.042969-4.316406-.425781-7.6875-4.0625-7.6875-8.488281zm0 0" fill="#ffc987"/><path d="m384.289062 228c4.097657 0 7.4375 3.328125 7.4375 7.421875v32.007813c0 4.09375-3.339843 7.425781-7.4375 7.425781h-18.851562c-4.101562 0-7.4375-3.332031-7.4375-7.425781v-3.054688c0-2.292969 1.046875-4.347656 2.691406-5.710938-1.644531-1.363281-2.691406-3.417968-2.691406-5.710937v-3.054687c0-2.292969 1.046875-4.347657 2.691406-5.710938-1.644531-1.363281-2.691406-3.417969-2.691406-5.710938v-3.054687c0-4.09375 3.335938-7.421875 7.4375-7.421875zm0 0" fill="#ffe2b8"/><path d="m248.308594 119.976562v29.851563c0 16.742187 10.921875 30.984375 26.058594 36.097656-10.855469-8.351562-17.867188-21.421875-17.867188-36.097656v-29.851563zm0 0" fill="#ffc987"/><path d="m131.980469 119.6875h6.160156c4.140625 0 7.5-3.359375 7.5-7.5 0-4.144531-3.359375-7.5-7.5-7.5h-1.53125v-9.902344c0-4.140625-3.355469-7.5-7.5-7.5-4.140625 0-7.5 3.359375-7.5 7.5v14.546875c0 5.707031 4.652344 10.355469 10.371094 10.355469zm0 0"/><path d="m106.152344 101.554688c4.140625 0 7.5-3.355469 7.5-7.5v-10.328126c0-4.140624-3.359375-7.5-7.5-7.5s-7.5 3.359376-7.5 7.5v10.328126c0 4.144531 3.359375 7.5 7.5 7.5zm0 0"/><path d="m160.757812 101.554688c4.144532 0 7.5-3.355469 7.5-7.5v-10.328126c0-4.140624-3.355468-7.5-7.5-7.5-4.140624 0-7.5 3.359376-7.5 7.5v10.328126c0 4.144531 3.359376 7.5 7.5 7.5zm0 0"/><path d="m110.957031 137.988281c6.007813 6.011719 14 9.320313 22.496094 9.320313 8.5 0 16.488281-3.3125 22.5-9.320313 2.925781-2.929687 2.925781-7.679687 0-10.605469-2.929687-2.929687-7.679687-2.929687-10.609375 0-3.175781 3.175782-7.398438 4.925782-11.890625 4.925782-4.488281 0-8.714844-1.75-11.890625-4.925782-2.929688-2.929687-7.679688-2.929687-10.605469 0-2.929687 2.929688-2.929687 7.679688 0 10.605469zm0 0"/><path d="m273.800781 145.742188v-8.371094c0-4.144532-3.359375-7.5-7.5-7.5s-7.5 3.355468-7.5 7.5v8.371094c0 4.140624 3.359375 7.5 7.5 7.5s7.5-3.359376 7.5-7.5zm0 0"/><path d="m319.167969 129.871094c-4.144531 0-7.5 3.355468-7.5 7.5v8.371094c0 4.140624 3.355469 7.5 7.5 7.5 4.140625 0 7.5-3.359376 7.5-7.5v-8.371094c0-4.140625-3.359375-7.5-7.5-7.5zm0 0"/><path d="m291.214844 160.164062h5.699218c4.140626 0 7.5-3.355468 7.5-7.5 0-4.140624-3.359374-7.5-7.5-7.5h-.859374v-4.550781c0-4.144531-3.355469-7.5-7.5-7.5-4.140626 0-7.5 3.355469-7.5 7.5v9.414063c0 5.589844 4.558593 10.136718 10.160156 10.136718zm0 0"/><path d="m302.992188 163.433594c-6.421876 3.269531-14.09375 3.269531-20.515626 0-3.691406-1.882813-8.207031-.414063-10.085937 3.277344-1.882813 3.691406-.414063 8.207031 3.277344 10.085937 5.34375 2.722656 11.207031 4.085937 17.066406 4.085937s11.722656-1.363281 17.066406-4.085937c3.691407-1.878906 5.160157-6.394531 3.277344-10.085937-1.878906-3.691407-6.398437-5.160157-10.085937-3.277344zm0 0"/><path d="m241 432.5c0 4.140625-3.355469 7.5-7.5 7.5-4.140625 0-7.5-3.359375-7.5-7.5s3.359375-7.5 7.5-7.5c4.144531 0 7.5 3.359375 7.5 7.5zm0 0"/><path d="m301 432.5c0 4.140625-3.355469 7.5-7.5 7.5-4.140625 0-7.5-3.359375-7.5-7.5s3.359375-7.5 7.5-7.5c4.144531 0 7.5 3.359375 7.5 7.5zm0 0"/><path d="m361 432.5c0 4.140625-3.355469 7.5-7.5 7.5-4.140625 0-7.5-3.359375-7.5-7.5s3.359375-7.5 7.5-7.5c4.144531 0 7.5 3.359375 7.5 7.5zm0 0"/><path d="m455.5 497h-28.085938c-.878906-41.78125-9.085937-81.734375-23.886718-115.976562-1.644532-3.800782-6.058594-5.550782-9.859375-3.910157-3.800781 1.644531-5.550781 6.0625-3.910157 9.863281 8.9375 20.671876 15.328126 43.59375 19.019532 67.796876-7.398438-1.277344-14.765625-8.53125-20.511719-20.378907-1.253906-2.585937-3.875-4.226562-6.746094-4.226562-2.875 0-5.492187 1.640625-6.746093 4.226562-6.355469 13.09375-14.683594 20.605469-22.851563 20.605469s-16.496094-7.511719-22.84375-20.605469c-1.253906-2.585937-3.875-4.226562-6.75-4.226562s-5.492187 1.640625-6.746094 4.226562c-6.351562 13.09375-14.679687 20.605469-22.847656 20.605469s-16.496094-7.511719-22.847656-20.605469c-1.253907-2.585937-3.875-4.226562-6.75-4.226562-2.871094 0-5.492188 1.640625-6.746094 4.226562-6.351563 13.09375-14.679687 20.605469-22.847656 20.605469s-16.496094-7.511719-22.847657-20.605469c-1.253906-2.585937-3.871093-4.226562-6.746093-4.226562s-5.496094 1.640625-6.75 4.226562c-5.75 11.863281-13.125 19.121094-20.535157 20.386719 5.363282-35.296875 16.445313-67.617188 32.480469-93.90625 13.820313-22.65625 30.277344-39.082031 48.121094-48.445312h23.75l1.390625 2.648437c1.679688 3.199219 4.683594 5.109375 8.035156 5.109375 3.351563 0 6.355469-1.910156 8.035156-5.109375l1.390626-2.648437h28.269531c16.839843 8.835937 32.484375 23.957031 45.792969 44.628906 2.246093 3.484375 6.886718 4.488281 10.367187 2.246094 3.484375-2.242188 4.488281-6.882813 2.246094-10.367188-11.652344-18.09375-25.054688-32.410156-39.597657-42.578125.320313-.371094.625-.753906.914063-1.152344h5.632813c11.65625 0 21.136718-9.46875 21.136718-21.105469v-1.746093h9.65625c8.238282 0 14.9375-6.695313 14.9375-14.921875v-15.441406h1.640625c3.359375 0 6.640625-1.375 8.988281-3.757813 2.363282-2.398437 3.6875-5.703125 3.628907-9.0625-.820313-49.320313-13.09375-95.707031-34.550781-130.613281-6.667969-10.847656-14.019532-20.25-21.90625-28.140625-5.546876-12.128907-15.238282-21.808594-27.941407-28.054688.75-2.492187 1.152344-5.128906 1.152344-7.859375 0-15.164062-12.335937-27.5-27.5-27.5h-20c-15.164063 0-27.5 12.335938-27.5 27.5 0 2.730469.402344 5.367188 1.152344 7.859375-12.703125 6.246094-22.398438 15.925781-27.941407 28.058594-5.085937 5.089844-9.945312 10.816406-14.546874 17.144531-.941407-5.203125-4.171876-9.613281-8.609376-12.167968v-40.539063c0-16.636719-13.585937-30.171875-30.28125-30.171875h-2.921874c-2.65625 0-5.230469.347656-7.6875.992188-6.871094-9.488282-18.058594-15.679688-30.671876-15.679688h-34.292968c-20.847656 0-37.808594 16.894531-37.808594 37.664062v47.734376c-5.308594 3.050781-8.898438 8.757812-8.898438 15.296874v12.292969c0 9.734375 7.9375 17.65625 17.695313 17.65625h2.800781c2.972656 10.703125 9.078125 20.121094 17.265625 27.214844l-.890625 2.761719h-33.382812c-11.421875 0-20.714844 9.292968-20.714844 20.714844v45.660156c0 4.144531 3.359375 7.5 7.5 7.5s7.5-3.355469 7.5-7.5v-45.660156c0-3.152344 2.5625-5.714844 5.714844-5.714844h2.152344v155.710937h-7.867188v-68.332031c0-4.144531-3.359375-7.5-7.5-7.5s-7.5 3.355469-7.5 7.5v90.101562c0 11.417969 9.292969 20.710938 20.714844 20.710938h8.761718v104.042969c-9.597656 1.179687-17.066406 9.28125-17.261718 19.144531h-40.214844c-4.140625 0-7.5 3.359375-7.5 7.5 0 4.144531 3.359375 7.5 7.5 7.5h448c4.140625 0 7.5-3.355469 7.5-7.5 0-4.140625-3.359375-7.5-7.5-7.5zm-384.300781-381.355469h-.777344c-1.488281 0-2.695313-1.191406-2.695313-2.652343v-12.296876c0-1.464843 1.207032-2.65625 2.695313-2.65625h.777344zm137.34375 219.703125v-83.359375h2.296875v32.109375c0 11.640625 9.480468 21.105469 21.132812 21.105469h5.632813c.285156.390625.582031.769531.894531 1.132813-10.683594 7.46875-20.742188 17.1875-29.957031 29.011718zm48.628906-45.144531h-25.199219c-3.382812 0-6.132812-2.738281-6.132812-6.105469v-77.4375c0-3.363281 2.75-6.105468 6.136718-6.105468 3.382813 0 6.136719 2.742187 6.136719 6.105468v19.210938c-.617187 2.121094-.953125 4.359375-.953125 6.675781 0 2.320313.332032 4.566406.953125 6.695313v31.25c0 4.144531 3.355469 7.5 7.5 7.5h11.5625v12.210937zm51.65625-103.574219c-3.679687-2.292968-8.023437-3.628906-12.671875-3.628906-5.316406 0-10.226562 1.734375-14.210938 4.660156-18.933593-2.328125-33.636718-18.402344-33.636718-37.832031v-29.851563h36.355468c7.925782 0 15.554688-3.308593 21.042969-8.898437 5.496094 5.59375 13.121094 8.898437 21.039063 8.898437h10.414062v29.851563c0 17.570313-12.027344 32.398437-28.332031 36.800781zm24.4375 13.925782c-.585937 1.9375-.910156 3.984374-.910156 6.105468v.042969c-.730469-1.144531-1.566407-2.203125-2.511719-3.148437-1.230469-1.226563-2.609375-2.226563-4.082031-3zm-57.269531 36.125c.808594-.597657 2.027344-.992188 3.347656-1.082032 3.738281-.253906 6.710938-3.230468 6.972656-6.964844.089844-1.324218.484375-2.550781 1.082032-3.355468.203124-.28125.609374-.75 1.003906-.75.207031.003906.460937.148437.753906.441406.734375.738281 1.484375 2.394531 1.492188 4.355469v.28125c0 3.75 2.757812 6.851562 6.355468 7.402343h-21.382812c.128906-.128906.265625-.246093.375-.328124zm-14.398438-28.144532c1.046875-3.832031 4.558594-6.664062 8.734375-6.664062 4.996094 0 9.058594 4.046875 9.058594 9.019531 0 .554687-.050781 1.09375-.148437 1.617187-.792969.566407-1.535157 1.21875-2.238282 1.929688-4.136718-3.601562-9.519531-5.808594-15.40625-5.902344zm32.789063 2.226563c-.019531-4.132813-1.09375-8.023438-2.964844-11.414063 1.378906-.851562 2.996094-1.347656 4.734375-1.347656 4.632812 0 8.457031 3.480469 8.988281 7.953125-1.070312 1.527344-1.933593 3.210937-2.554687 5.027344-1.535156.527343-2.980469 1.222656-4.3125 2.074219-1.203125-.957032-2.515625-1.71875-3.890625-2.292969zm-41.273438 52.230469v-3.710938l1.945313 3.710938zm7.171875-25.980469h-3.457031c-1.105469 0-2.164063.1875-3.15625.511719-.953125-1.425782-1.511719-3.136719-1.511719-4.976563 0-4.976563 4.0625-9.023437 9.054688-9.023437 1.925781 0 3.707031.609374 5.175781 1.632812-3.734375 3.042969-5.910156 7.292969-6.105469 11.855469zm22.488282 54.957031c0 .566406-.464844 1.03125-1.035157 1.03125h-8.53125c-.570312 0-1.035156-.464844-1.035156-1.03125v-14.9375c0-.566406.464844-1.03125 1.035156-1.03125h8.53125c.570313 0 1.035157.464844 1.035157 1.03125zm26.667968 0c0 .566406-.464844 1.03125-1.035156 1.03125h-8.53125c-.570312 0-1.035156-.464844-1.035156-1.03125v-14.9375c0-.566406.464844-1.03125 1.035156-1.03125h8.53125c.570312 0 1.035156.464844 1.035156 1.03125zm.449219-30.894531c-.488281-.042969-.984375-.074219-1.484375-.074219h-8.53125c-3.367188 0-6.488281 1.046875-9.070312 2.824219-2.582032-1.777344-5.703126-2.824219-9.066407-2.824219h-8.53125c-.738281 0-1.457031.066406-2.164062.164062l-4.808594-9.152343h48.417969zm8.132813-24.0625c-.042969-.289063-.078126-.578125-.140626-.863281-.089843-1.335938-.554687-2.617188-1.3125-3.71875-.796874-1.605469-1.855468-3.109376-3.183593-4.4375-1.238281-1.238282-2.675781-2.296876-4.246094-3.164063.097656-.011719.1875-.03125.28125-.039063 3.738281-.253906 6.714844-3.226562 6.972656-6.96875.09375-1.320312.488281-2.542968 1.082031-3.351562.207032-.277344.609376-.746094 1.007813-.746094.207031 0 .460937.148438.75.441406.738281.734376 1.488281 2.390626 1.492187 4.394532v.195312c-.011718 2.011719.847657 3.945313 2.277344 5.363282 1.40625 1.398437 3.367188 2.183593 5.347656 2.183593.03125-.003906.0625-.003906.089844-.003906 2.03125.007813 3.683594.757813 4.421875 1.492187.441407.441407.441407.679688.441407.753907 0 .613281-1.441407 1.90625-4.097657 2.089843-3.539062.242188-6.386719 2.921876-6.902343 6.375h-4.28125zm14.332031 13.851562v12.128907h-6.53125l6.09375-11.601563c.15625-.167969.289062-.355469.4375-.527344zm27.273437-29.1875c-5.359375 2.269531-9.128906 7.578125-9.128906 13.746094v3.058594c0 1.988281.394531 3.921875 1.132812 5.707031-.738281 1.789062-1.132812 3.722656-1.132812 5.710938v3.054687c0 1.988281.394531 3.925781 1.132812 5.710937-.738281 1.789063-1.132812 3.726563-1.132812 5.714844v3.050782c0 6.171874 3.769531 11.480468 9.128906 13.75v2.921874c0 3.363282-2.753906 6.101563-6.136718 6.101563h-29.050782v-12.210937h15.414063c4.140625 0 7.5-3.355469 7.5-7.5v-36.625c.621093-1.6875.957031-3.496094.953125-5.375-.007813-1.796876-.347656-3.554688-.953125-5.230469v-16.601563c0-3.363281 2.753906-6.105468 6.136719-6.105468 3.382812 0 6.136718 2.742187 6.136718 6.105468zm5.871094 45.753907-.019531-2.992188c1.714843-1.425781 2.71875-3.511719 2.71875-5.742188 0-2.230468-.984375-4.316406-2.699219-5.742187l-.023438-2.992187c1.71875-1.425782 2.726563-3.511719 2.722657-5.742188 0-2.230469-.980469-4.316406-2.699219-5.738281v-2.980469h18.722656l.0625 31.855469zm-13.339844-134.003907h.097656c1.171876 0 2.128907.898438 2.128907 2.007813v11.507812c0 1.109375-.953125 2.007813-2.128907 2.007813h-.097656zm.097656 30.523438c9.445313 0 17.128907-7.628907 17.128907-17.007813v-11.507812c0-5.65625-2.804688-10.660156-7.09375-13.753906v-11.214844c1.308593 1.929687 2.597656 3.898437 3.859375 5.945312 18.707031 30.433594 29.945312 70.449219 32.019531 113.539063-2.191406-5.523438-7.582031-9.449219-13.882813-9.449219h-9.660156v-13.839844c0-11.636718-9.480468-21.105468-21.136718-21.105468h-15.253907c5.5625-6.085938 9.734375-13.453126 11.996094-21.605469zm-69.523437-131.949219h20c6.890625 0 12.5 5.605469 12.5 12.5 0 .917969-.105469 1.808594-.292969 2.671875-6.867187-1.769531-14.304687-2.707031-22.207031-2.707031-7.90625 0-15.34375.9375-22.207031 2.707031-.191406-.863281-.292969-1.753906-.292969-2.671875 0-6.894531 5.605469-12.5 12.5-12.5zm-44.558594 73.40625c0-31.734375 27.402344-45.941406 54.558594-45.941406s54.558594 14.207031 54.558594 45.941406v1.167969c-1.601563-1.007813-3.488281-1.597657-5.515625-1.597657h-15.03125c-4.914063 0-9.609375-2.613281-12.242188-6.816406-1.910156-3.050781-5.199218-4.871094-8.796875-4.871094-3.589843 0-6.878906 1.816407-8.804687 4.875-2.628906 4.199219-7.320313 6.8125-12.238282 6.8125h-40.972656c-2.027344 0-3.914062.59375-5.515625 1.601563zm-7.09375 30.027344c0-1.105469.953125-2.007813 2.125-2.007813h.101563v15.523438h-.101563c-1.171875 0-2.125-.898438-2.125-2.007813zm-11.761719-19.023438c1.257813-2.046875 2.546876-4.011718 3.855469-5.9375v11.207032c-4.289062 3.09375-7.09375 8.097656-7.09375 13.753906v11.507812c0 9.378906 7.683594 17.007813 17.125 17.007813h2.027344c2.261719 8.152343 6.429687 15.523437 11.996094 21.605469h-15.253907c-11.65625 0-21.136718 9.46875-21.136718 21.105468v30.328125h-23.804688c1.128906-45.753906 12.5625-88.492187 32.285156-120.578125zm-23.605468-18.371094h.777344c1.484374 0 2.691406 1.191407 2.691406 2.65625v12.292969c0 1.464844-1.207032 2.65625-2.691406 2.65625h-.777344zm-.84375 32.605469c-4.285156 9.460938-8.003906 19.496094-11.132813 29.980469h-6.191406l-.925781-2.9375c8.085937-7.074219 14.121094-16.421875 17.066406-27.042969zm-22.785156-100.957031h2.921874c8.425782 0 15.28125 6.804688 15.28125 15.171875v15.808594c-4.078124-7.523438-10.398437-13.492188-18.753906-17.765625v-5.238282c0-2.710937-.296875-5.355468-.84375-7.90625.460938-.042968.925782-.070312 1.394532-.070312zm-95.460938 30.976562v-23c0-12.496093 10.230469-22.664062 22.808594-22.664062h34.292968c12.539063 0 22.746094 10.105469 22.808594 22.554688-6.878906-1.59375-14.585937-2.414063-23.078125-2.414063-28.265625 0-47.914062 9.0625-56.832031 25.523437zm9.574219 55.152344v-31.964844c0-27.863281 25.699219-33.710937 47.257812-33.710937 21.558594 0 47.257813 5.847656 47.257813 33.710937v31.96875c0 22.441407-18.339844 40.699219-40.878906 40.699219h-12.757813c-22.542969 0-40.878906-18.257812-40.878906-40.703125zm79.535156 101.25 7.074219 4.019532c-.15625 2.109374-.285156 4.230468-.402344 6.355468l-26.78125 44.941406h-2.835938l17.152344-77.71875c.683594.097657 1.367188.160157 2.042969.160157h.003906c3.640625 0 6.945313-1.378907 9.410157-3.871094l2.125 6.726563-7.398438 3.726562c-3.109375 1.566406-5.011719 4.449219-5.09375 7.707031-.078125 3.261719 1.679688 6.234375 4.703125 7.953125zm-64.949219-15.660156-7.367187-3.707031 2.140625-6.652344c2.371094 2.375 5.617187 3.78125 9.363281 3.78125.679687 0 1.363281-.066406 2.046875-.160156l17.152344 77.71875h-2.835938l-29.710937-49.863281 9.601562-5.457032c3.027344-1.71875 4.785157-4.691406 4.703125-7.953125-.082031-3.261719-1.988281-6.140625-5.09375-7.707031zm5.671875-22.175781v-11.644531c3.238281 1.285156 6.625 2.269531 10.125 2.933593v4.523438zm14.703125 10.148437 1.277344-.527344c1.925781 1.21875 4.199219 1.933594 6.644531 1.933594h8.519531c2.480469 0 4.789063-.734375 6.738282-1.988281l1.410156.585937-12.292969 55.703126zm10.421875-13.597656v-4.261719h3.519531v4.261719zm18.523438-.832031v-4.382813c3.578125-.667968 7.042969-1.667968 10.347656-2.980468v11.644531zm-76.738281.671875h11.398437l-6.800781 21.132812c-1.570313 4.886719.703125 10.3125 5.285156 12.617188l.585938.292968-4.074219 2.316407c-2.335938 1.324219-4.066407 3.570312-4.753907 6.160156-.683593 2.59375-.289062 5.398437 1.082032 7.703125l34.492187 57.878906c1.351563 2.269532 3.796875 3.660156 6.441407 3.660156h32.863281c2.644531 0 5.089843-1.390624 6.445312-3.660156l20.507813-34.421875c2.207031 1.714844 4.953125 2.6875 7.765625 2.6875h8.9375v85.480469h-120.175781zm-17.152344 183.191406c-3.152344 0-5.714844-2.5625-5.714844-5.710938v-6.769531h7.996094c.589844 3.203125 3.210937 5.691407 6.480468 6.078125v6.402344zm6.496094 138.1875c.199218-2.410156 2.222656-4.308594 4.683593-4.308594h41.667969c2.460938 0 4.484375 1.898438 4.683594 4.308594zm95.34375 0h-4.886719c.199219-2.410156 2.222656-4.308594 4.679687-4.308594h.328125c-.046875 1.433594-.089843 2.867188-.121093 4.308594zm-.207032-19.308594c-1.621094 0-3.1875.21875-4.695312.589844v-43.285156c0-4.140625-3.355469-7.5-7.5-7.5-4.140625 0-7.5 3.359375-7.5 7.5v62.003906h-9.390625v-127.289062h9.390625v30.289062c0 4.144531 3.359375 7.5 7.5 7.5 4.144531 0 7.5-3.355469 7.5-7.5v-37.789062c0-4.144532-3.355469-7.5-7.5-7.5h-24.390625c-4.144531 0-7.5 3.355468-7.5 7.5v116.066406c-1.507813-.371094-3.078125-.589844-4.699219-.589844h-29.085938v-125.21875h106.960938v17.785156c-15.320312 31.054688-24.941406 68.019532-27.941406 107.4375zm15.199219 19.308594c.203125-9.128906.773437-18.148438 1.6875-27.015625 10.945313-.136719 21.039063-6.285156 29.214844-17.613281 8.269531 11.460937 18.503906 17.628906 29.59375 17.628906 11.09375 0 21.324219-6.167969 29.59375-17.625 8.273437 11.457031 18.503906 17.625 29.597656 17.625 11.089844 0 21.324219-6.167969 29.59375-17.625 8.273437 11.457031 18.503906 17.625 29.59375 17.625 11.09375 0 21.324219-6.167969 29.597656-17.628906 8.171875 11.324218 18.257813 17.46875 29.199219 17.613281.917969 8.882813 1.5 17.898437 1.699219 27.015625zm0 0"/><path d="m140.949219 201.628906c0 4.144532-3.355469 7.5-7.5 7.5-4.140625 0-7.5-3.355468-7.5-7.5 0-4.140625 3.359375-7.5 7.5-7.5 4.144531 0 7.5 3.359375 7.5 7.5zm0 0"/><path d="m140.949219 300.210938c0 4.140624-3.355469 7.5-7.5 7.5-4.140625 0-7.5-3.359376-7.5-7.5 0-4.144532 3.359375-7.5 7.5-7.5 4.144531 0 7.5 3.355468 7.5 7.5zm0 0"/><path d="m140.960938 322.570312c0 4.140626-3.359376 7.5-7.5 7.5-4.140626 0-7.5-3.359374-7.5-7.5 0-4.144531 3.359374-7.5 7.5-7.5 4.140624 0 7.5 3.355469 7.5 7.5zm0 0"/></svg>