<?xml version="1.0" encoding="iso-8859-1"?>
<!-- Generator: Adobe Illustrator 19.0.0, SVG Export Plug-In . SVG Version: 6.00 Build 0)  -->
<svg version="1.1" id="Capa_1" xmlns="http://www.w3.org/2000/svg" xmlns:xlink="http://www.w3.org/1999/xlink" x="0px" y="0px"
	 viewBox="0 0 511.999 511.999" style="enable-background:new 0 0 511.999 511.999;" xml:space="preserve">
<g>
	<path style="fill:#1D4859;" d="M106.069,434.392c-0.336,0-0.67-0.009-1.002-0.026v30.028c0,8.234,6.675,14.909,14.909,14.909h22.1
		c8.234,0,14.909-6.675,14.909-14.909v-30.001L106.069,434.392L106.069,434.392z"/>
	<path style="fill:#1D4859;" d="M405.928,434.392h-50.916v30.001c0,8.234,6.675,14.909,14.909,14.909h22.1
		c8.234,0,14.909-6.675,14.909-14.909v-30.028C406.598,434.382,406.264,434.392,405.928,434.392z"/>
</g>
<path style="fill:#2DE8E8;" d="M128.594,318.858h254.808c8.014,0,15.495,2.274,21.842,6.203l-26.736-84.244
	c-3.224-10.157-12.653-17.058-23.31-17.058h-198.4c-10.657,0-20.086,6.901-23.31,17.058l-26.736,84.244
	C113.1,321.132,120.58,318.858,128.594,318.858z"/>
<path style="fill:#55A2F0;" d="M405.928,435.336H106.069c-10.515,0-19.04-8.524-19.04-19.04v-55.873
	c0-22.956,18.609-41.565,41.565-41.565h254.808c22.956,0,41.565,18.609,41.565,41.565v55.873
	C424.968,426.812,416.444,435.336,405.928,435.336z"/>
<g>
	<path style="fill:#FEE570;" d="M115.869,375.436l31.84,8.325c1.581,0.413,2.828,1.628,3.284,3.197l5.202,17.922
		c0.997,3.433-2.099,6.658-5.57,5.801l-34.629-8.542c-1.848-0.456-3.231-1.994-3.488-3.88l-2.413-17.705
		C109.649,377.279,112.671,374.6,115.869,375.436z"/>
	<path style="fill:#FEE570;" d="M396.128,375.436l-31.84,8.325c-1.581,0.413-2.828,1.628-3.284,3.197l-5.202,17.922
		c-0.997,3.433,2.099,6.658,5.57,5.801l34.629-8.542c1.848-0.456,3.231-1.994,3.488-3.88l2.413-17.705
		C402.349,377.279,399.326,374.6,396.128,375.436z"/>
</g>
<path style="fill:#61AFF7;" d="M383.403,318.858H128.594c-9.961,0-19.1,3.508-26.259,9.35c12.1,21.135,34.794,34.871,60.122,34.871
	H349.54c25.328,0,48.022-13.736,60.122-34.871C402.503,322.366,393.364,318.858,383.403,318.858z"/>
<g>
	<path style="fill:#FF901D;" d="M412.657,328.124h20.908c4.726,0,8.557-3.831,8.557-8.557v-10.509c0-4.726-3.831-8.557-8.557-8.557
		h-20.908c-4.726,0-8.557,3.831-8.557,8.557v10.509C404.1,324.293,407.931,328.124,412.657,328.124z"/>
	<path style="fill:#FF901D;" d="M78.628,328.124h20.908c4.726,0,8.557-3.831,8.557-8.557v-10.509c0-4.726-3.831-8.557-8.557-8.557
		H78.628c-4.726,0-8.557,3.831-8.557,8.557v10.509C70.071,324.293,73.902,328.124,78.628,328.124z"/>
</g>
<path style="fill:#2C5871;" d="M26.4,479.302h15.46c2.835,0,5.133-2.298,5.133-5.133V177.445c0-2.835-2.298-5.133-5.133-5.133H26.4
	c-2.835,0-5.133,2.298-5.133,5.133v296.724C21.267,477.004,23.565,479.302,26.4,479.302z"/>
<path style="fill:#1D4859;" d="M41.861,172.312h-7.73v306.99h7.73c2.835,0,5.134-2.298,5.134-5.133V177.445
	C46.994,174.61,44.696,172.312,41.861,172.312z"/>
<path style="fill:#2C5871;" d="M470.139,479.302h15.46c2.835,0,5.133-2.298,5.133-5.133V177.445c0-2.835-2.298-5.133-5.133-5.133
	h-15.46c-2.835,0-5.133,2.298-5.133,5.133v296.724C465.006,477.004,467.304,479.302,470.139,479.302z"/>
<path style="fill:#1D4859;" d="M485.6,172.312h-7.73v306.99h7.73c2.835,0,5.133-2.298,5.133-5.133V177.445
	C490.733,174.61,488.435,172.312,485.6,172.312z"/>
<path style="fill:#FF4C4C;" d="M260.761,33.809c-2.998-1.495-6.524-1.495-9.522,0L14.629,151.826
	c-4.493,2.241-7.332,6.83-7.332,11.85v24.246c0,9.839,10.349,16.242,19.153,11.85l224.789-112.12c2.998-1.495,6.524-1.495,9.522,0
	l224.788,112.121c8.804,4.391,19.153-2.012,19.153-11.85v-24.246c0-5.021-2.839-9.609-7.332-11.85L260.761,33.809z"/>
<path style="fill:#F33A3A;" d="M485.549,173.013L260.761,60.892c-2.998-1.495-6.524-1.495-9.522,0L26.451,173.013
	c-8.418,4.199-18.242-1.474-19.088-10.58c-0.039,0.411-0.066,0.825-0.066,1.243v24.246c0,9.839,10.349,16.242,19.153,11.85
	L251.239,87.651c2.998-1.495,6.524-1.495,9.522,0l224.788,112.121c8.804,4.391,19.153-2.012,19.153-11.85v-24.246
	c0-0.418-0.027-0.832-0.066-1.243C503.791,171.54,493.968,177.212,485.549,173.013z"/>
<path d="M500.628,145.295l-47.88-23.882c-3.608-1.799-7.989-0.334-9.789,3.273c-1.799,3.607-0.333,7.989,3.274,9.788l47.88,23.882
	c2.03,1.012,3.291,3.051,3.291,5.32v24.246c0,2.989-1.97,4.531-2.817,5.055c-0.577,0.357-1.808,0.967-3.379,0.901
	c-0.023-0.001-0.045-0.006-0.068-0.007c-0.389-0.022-0.775-0.085-1.154-0.185c-0.019-0.005-0.037-0.009-0.056-0.014
	c-0.163-0.045-0.326-0.099-0.487-0.158c-0.031-0.011-0.061-0.02-0.092-0.032c-0.17-0.066-0.339-0.14-0.505-0.222
	c-0.013-0.006-0.026-0.011-0.039-0.018L264.019,81.122c-5.023-2.506-11.018-2.505-16.037,0L23.193,193.242
	c-0.013,0.006-0.026,0.011-0.038,0.017c-0.167,0.082-0.336,0.157-0.507,0.223c-0.03,0.012-0.059,0.02-0.088,0.031
	c-0.162,0.06-0.325,0.114-0.49,0.159c-0.018,0.005-0.036,0.009-0.053,0.014c-0.38,0.1-0.766,0.163-1.156,0.185
	c-0.023,0.001-0.045,0.006-0.069,0.007c-1.571,0.067-2.803-0.544-3.379-0.901c-0.847-0.524-2.817-2.065-2.817-5.055v-24.246
	c0-2.269,1.261-4.307,3.291-5.32L254.497,40.34c0.941-0.469,2.066-0.469,3.007,0l145.881,72.763
	c3.606,1.798,7.988,0.333,9.789-3.273c1.799-3.607,0.333-7.989-3.274-9.788L264.018,27.278c-5.021-2.504-11.015-2.504-16.036,0
	L11.372,145.295C4.358,148.794,0,155.837,0,163.676v24.246c0,7.167,3.639,13.696,9.732,17.467c1.353,0.837,2.775,1.495,4.236,1.992
	v266.787c0,6.855,5.577,12.431,12.431,12.431H41.86c6.854,0,12.431-5.577,12.431-12.431V194.041l200.206-99.859
	c0.941-0.468,2.065-0.469,3.006,0l200.205,99.859v280.127c0,6.855,5.577,12.431,12.431,12.431H485.6
	c6.854,0,12.431-5.577,12.431-12.431V207.383c1.461-0.498,2.884-1.157,4.236-1.993c6.094-3.771,9.732-10.3,9.732-17.467v-24.246
	C512,155.837,507.642,148.794,500.628,145.295z M39.696,472.004H28.565V206.832c0.385-0.164,0.766-0.34,1.143-0.528h0.001
	l9.987-4.982V472.004z M483.435,472.004h-11.131V201.321l9.987,4.982h0.001c0.138,0.069,0.279,0.128,0.418,0.193
	c0.232,0.109,0.463,0.222,0.697,0.322c0.009,0.004,0.018,0.009,0.028,0.013V472.004z"/>
<path d="M433.565,293.203h-20.907c-3.332,0-6.423,1.038-8.978,2.801l-18.215-57.394c-4.204-13.247-16.366-22.148-30.266-22.148
	H156.797c-13.899,0-26.062,8.901-30.266,22.148l-18.178,57.28c-2.523-1.695-5.556-2.687-8.818-2.687H78.628
	c-8.742,0-15.854,7.113-15.854,15.855v10.509c0,8.742,7.112,15.855,15.854,15.855h8.005c-4.378,7.32-6.902,15.87-6.902,25.001
	v55.873c0,11.623,7.571,21.505,18.039,24.99v23.106c0,12.245,9.962,22.207,22.206,22.207h22.1c12.245,0,22.206-9.962,22.206-22.207
	v-21.758h183.432v21.758c0,12.245,9.961,22.207,22.206,22.207h22.1c12.245,0,22.206-9.962,22.206-22.207v-23.106
	c10.467-3.486,18.039-13.367,18.039-24.99v-55.873c0-9.131-2.524-17.682-6.902-25.001h8.201c8.742,0,15.855-7.113,15.855-15.855
	v-10.509C449.42,300.315,442.308,293.203,433.565,293.203z M140.444,243.024c2.272-7.158,8.844-11.967,16.354-11.967H355.2
	c7.51,0,14.082,4.809,16.354,11.967l22.097,69.626c-0.528-0.113-1.061-0.211-1.595-0.307c-0.171-0.031-0.341-0.063-0.513-0.092
	c-0.495-0.083-0.992-0.158-1.491-0.227c-0.287-0.04-0.574-0.075-0.862-0.11c-0.423-0.05-0.846-0.099-1.272-0.138
	c-0.415-0.039-0.831-0.067-1.247-0.095c-0.324-0.022-0.646-0.048-0.972-0.063c-0.764-0.036-1.529-0.058-2.296-0.058H128.595
	c-0.767,0-1.533,0.022-2.297,0.058c-0.325,0.015-0.647,0.042-0.971,0.063c-0.417,0.028-0.833,0.057-1.249,0.095
	c-0.425,0.039-0.847,0.088-1.268,0.138c-0.289,0.035-0.578,0.071-0.866,0.11c-0.498,0.068-0.993,0.143-1.486,0.226
	c-0.174,0.03-0.347,0.062-0.521,0.093c-0.532,0.095-1.063,0.193-1.589,0.306L140.444,243.024z M121.694,326.854
	c0.002,0,0.003-0.001,0.005-0.001c0.446-0.091,0.897-0.168,1.349-0.242c0.213-0.034,0.427-0.069,0.641-0.099
	c0.362-0.052,0.726-0.098,1.092-0.139c0.347-0.038,0.695-0.068,1.044-0.096c0.273-0.022,0.545-0.047,0.82-0.063
	c0.647-0.036,1.296-0.059,1.95-0.059h254.808c0.654,0,1.304,0.024,1.951,0.059c0.273,0.015,0.544,0.04,0.816,0.062
	c0.35,0.028,0.7,0.058,1.048,0.096c0.365,0.041,0.728,0.087,1.089,0.139c0.216,0.031,0.43,0.065,0.645,0.1
	c0.451,0.074,0.901,0.15,1.345,0.241c0.004,0.001,0.008,0.002,0.012,0.003c3.312,0.68,6.45,1.842,9.34,3.405
	c-11.577,15.889-30.219,25.521-50.11,25.521H162.457c-19.891,0-38.533-9.633-50.109-25.521
	C115.24,328.696,118.38,327.535,121.694,326.854z M78.628,320.826c-0.694,0-1.258-0.565-1.258-1.259v-10.509
	c0-0.694,0.564-1.259,1.258-1.259h20.908c0.695,0,1.259,0.565,1.259,1.259v10.509c0,0.136-0.038,0.262-0.078,0.385l-0.044,0.138
	c-0.2,0.432-0.631,0.736-1.137,0.736H78.628z M149.687,464.393c0,4.197-3.414,7.611-7.611,7.611h-22.1
	c-4.196,0-7.611-3.414-7.611-7.611v-21.758h37.321v21.758H149.687z M399.632,464.393c0,4.197-3.414,7.611-7.611,7.611h-22.1
	c-4.196,0-7.611-3.414-7.611-7.611v-21.758h37.321v21.758H399.632z M417.67,416.297c0,6.206-4.842,11.289-10.945,11.701
	c-0.056,0.001-0.112-0.003-0.169,0l-0.443,0.027l-300.009,0.014l-0.663-0.041c-0.059-0.003-0.118,0.002-0.177,0
	c-6.099-0.417-10.937-5.498-10.937-11.701v-55.873c0-7.741,2.583-14.888,6.928-20.631c14.347,19.064,37.024,30.585,61.202,30.585
	H349.54c24.178,0,46.856-11.521,61.203-30.584c4.345,5.743,6.928,12.89,6.928,20.631v55.872H417.67z M434.824,319.567
	c0,0.694-0.564,1.259-1.259,1.259h-20.907c-0.695,0-1.259-0.565-1.259-1.259v-10.509c0-0.694,0.564-1.259,1.259-1.259h20.907
	c0.695,0,1.259,0.565,1.259,1.259V319.567z"/>
<path d="M158.001,384.921c-1.167-4.014-4.403-7.164-8.446-8.221l-31.84-8.325c-3.866-1.012-7.953-0.031-10.94,2.617
	c-2.989,2.648-4.45,6.592-3.911,10.548l2.414,17.707c0.666,4.881,4.187,8.798,8.971,9.979l34.629,8.542
	c0.941,0.232,1.896,0.345,2.844,0.345c3.214,0,6.353-1.299,8.628-3.669c2.946-3.068,4.04-7.513,2.854-11.597L158.001,384.921z
	 M119.495,395.486l-1.633-11.986l26.543,6.94l3.498,12.053L119.495,395.486z"/>
<path d="M394.282,368.375l-31.839,8.325c-4.043,1.057-7.28,4.207-8.448,8.224l-5.201,17.921c-1.187,4.086-0.093,8.53,2.853,11.598
	c2.275,2.369,5.415,3.669,8.628,3.669c0.948,0,1.903-0.113,2.844-0.345l34.63-8.542c4.784-1.181,8.304-5.098,8.971-9.98
	l2.413-17.705c0.539-3.956-0.923-7.9-3.911-10.548C402.234,368.343,398.144,367.365,394.282,368.375z M392.502,395.486
	l-28.408,7.007l3.498-12.053l26.543-6.94L392.502,395.486z"/>
<path d="M338.386,379.748h-91.423c-4.031,0-7.298,3.267-7.298,7.298c0,4.03,3.267,7.298,7.298,7.298h91.423
	c4.031,0,7.298-3.267,7.298-7.298C345.684,383.015,342.417,379.748,338.386,379.748z"/>
<path d="M198.833,394.344c4.031,0,7.298-3.267,7.298-7.298s-3.267-7.298-7.298-7.298h-26.029c-4.031,0-7.298,3.267-7.298,7.298
	c0,4.03,3.267,7.298,7.298,7.298H198.833z"/>
<path d="M333.946,401.781H178.051c-4.031,0-7.298,3.267-7.298,7.298s3.267,7.298,7.298,7.298h155.896
	c4.031,0,7.298-3.267,7.298-7.298S337.977,401.781,333.946,401.781z"/>
<g>
</g>
<g>
</g>
<g>
</g>
<g>
</g>
<g>
</g>
<g>
</g>
<g>
</g>
<g>
</g>
<g>
</g>
<g>
</g>
<g>
</g>
<g>
</g>
<g>
</g>
<g>
</g>
<g>
</g>
</svg>
